# xmcd
#
# Track frame offsets:
#	150
#	20117
#	35210
#
# Disc length: 708 seconds
#
# Revision: 1
# Processed by: cddbd v1.5.1PL0 Copyright (c) Steve Scherf et al.
# Submitted via: CDex 1.50Beta5
#
DISCID=2502c203
DTITLE=真空メロウ - 心ナイフ
DYEAR=1900
DGENRE=Rock
TTITLE0=心ナイフ
TTITLE1=虹色くず
TTITLE2=フォークソング
EXTD=
EXTT0=
EXTT1=
EXTT2=
PLAYORDER=
